<svg xmlns="http://www.w3.org/2000/svg" xmlns:xlink="http://www.w3.org/1999/xlink" aria-hidden="true" role="img" class="iconify iconify--logos" width="32" height="32" preserveAspectRatio="xMidYMid meet" viewBox="0 0 256 257"><defs><linearGradient id="IconifyId18e778a6aeb2773e2d0" x1="-.828%" x2="57.636%" y1="7.652%" y2="78.411%"><stop offset="0%" stop-color="#41D1FF"></stop><stop offset="100%" stop-color="#BD34FE"></stop></linearGradient><linearGradient id="IconifyId18e778a6aeb2773e2d1" x1="43.376%" x2="50.316%" y1="2.242%" y2="89.03%"><stop offset="0%" stop-color="#FFEA83"></stop><stop offset="8.333%" stop-color="#FFDD35"></stop><stop offset="100%" stop-color="#FFA800"></stop></linearGradient></defs><path fill="url(#IconifyId18e778a6aeb2773e2d0)" d="M255.153 37.938L134.897 252.976c-2.483 4.44-8.862 4.466-11.382.048L.875 37.958c-2.746-4.814 1.371-10.646 6.827-9.67l120.385 21.517a6.992 6.992 0 0 0 2.422 0l119.793-21.52c5.447-.98 9.575 4.857 6.851 9.653Z"></path><path fill="url(#IconifyId18e778a6aeb2773e2d1)" d="M195.281 54.587L128.114 185.43c-1.262 2.54-5.043 2.504-6.26-.058L60.328 54.611c-1.683-3.49 1.62-7.206 5.34-6.513l59.398 10.88a4 4 0 0 0 1.44 0l58.448-10.88c3.753-.699 7.028 3.005 5.335 6.49Z"></path></svg>
